<svg id="visual" viewBox="0 0 50 400" width="50" height="400" xmlns="http://www.w3.org/2000/svg" xmlns:xlink="http://www.w3.org/1999/xlink" version="1.1"><rect x="0" y="0" width="50" height="400" fill="#ffd803"></rect><defs><linearGradient id="grad1_0" x1="0%" y1="100%" x2="100%" y2="0%"><stop offset="30%" stop-color="#ffd803" stop-opacity="1"></stop><stop offset="70%" stop-color="#ffd803" stop-opacity="1"></stop></linearGradient></defs><defs><linearGradient id="grad2_0" x1="0%" y1="100%" x2="100%" y2="0%"><stop offset="30%" stop-color="#ffd803" stop-opacity="1"></stop><stop offset="70%" stop-color="#ffd803" stop-opacity="1"></stop></linearGradient></defs><g transform="translate(50, 400)"><path d="M-45 0C-38.6 -1.4 -32.1 -2.9 -31.6 -5C-31.1 -7.1 -36.5 -9.9 -39 -12.7C-41.5 -15.4 -41.1 -18.1 -40.1 -20.4C-39.1 -22.8 -37.6 -24.9 -34 -24.7C-30.3 -24.5 -24.5 -21.9 -21.9 -21.9C-19.4 -21.9 -20.1 -24.4 -20.6 -28.3C-21 -32.2 -21.3 -37.6 -19.1 -37.4C-16.9 -37.3 -12.2 -31.7 -9.6 -29.5C-6.9 -27.3 -6.3 -28.5 -5 -31.6C-3.7 -34.8 -1.9 -39.9 0 -45L0 0Z" fill="#00214d"></path></g><g transform="translate(0, 0)"><path d="M45 0C42.8 2.2 40.6 4.3 38.5 6.1C36.5 7.9 34.6 9.2 34.2 11.1C33.9 13 35.1 15.5 35.6 18.2C36.2 20.8 36.2 23.7 34 24.7C31.7 25.7 27.2 24.7 24 24C20.9 23.4 19 23 18.8 25.9C18.6 28.7 20.1 34.8 19.5 38.3C19 41.9 16.4 42.9 13.9 42.8C11.4 42.7 8.9 41.3 6.6 41.5C4.3 41.6 2.1 43.3 0 45L0 0Z" fill="#00214d"></path></g></svg>