<svg id="visual" viewBox="0 0 600 350" width="600" height="350" xmlns="http://www.w3.org/2000/svg" xmlns:xlink="http://www.w3.org/1999/xlink" version="1.1"><rect x="0" y="0" width="600" height="350" fill="#00214d"></rect><path d="M0 106L14.3 91.5C28.7 77 57.3 48 85.8 50.3C114.3 52.7 142.7 86.3 171.2 97.7C199.7 109 228.3 98 257 82.2C285.7 66.3 314.3 45.7 343 49.2C371.7 52.7 400.3 80.3 428.8 90.8C457.3 101.3 485.7 94.7 514.2 87.5C542.7 80.3 571.3 72.7 585.7 68.8L600 65L600 0L585.7 0C571.3 0 542.7 0 514.2 0C485.7 0 457.3 0 428.8 0C400.3 0 371.7 0 343 0C314.3 0 285.7 0 257 0C228.3 0 199.7 0 171.2 0C142.7 0 114.3 0 85.8 0C57.3 0 28.7 0 14.3 0L0 0Z" fill="#ffd803" stroke-linecap="round" stroke-linejoin="miter"></path></svg>